<?xml version="1.0" standalone="no"?>
<!DOCTYPE svg PUBLIC "-//W3C//DTD SVG 20010904//EN"
 "http://www.w3.org/TR/2001/REC-SVG-20010904/DTD/svg10.dtd">
<svg version="1.0" xmlns="http://www.w3.org/2000/svg"
 width="1024.000000pt" height="1024.000000pt" viewBox="0 0 1024.000000 1024.000000"
 preserveAspectRatio="xMidYMid meet">

<g transform="translate(0.000000,1024.000000) scale(0.100000,-0.100000)"
fill="#000000" stroke="none">
<path d="M4091 7871 c-11 -11 -34 -65 -51 -121 -37 -120 -80 -206 -178 -356
-79 -122 -87 -153 -46 -180 22 -15 30 -16 62 -4 80 28 142 83 214 189 24 36
48 66 55 68 6 2 29 -29 51 -70 47 -85 102 -139 179 -174 50 -23 55 -24 78 -9
30 20 39 49 24 78 -6 13 -38 63 -71 111 -68 100 -126 219 -158 322 -31 100
-51 145 -71 156 -29 15 -68 10 -88 -10z"/>
<path d="M3106 7845 c-8 -8 -22 -41 -31 -73 -48 -170 -103 -279 -219 -437 -72
-98 -82 -133 -44 -159 30 -22 54 -20 113 8 63 29 152 116 186 181 14 28 32 50
39 50 8 0 35 -30 60 -67 58 -85 93 -123 149 -159 50 -32 101 -38 125 -13 30
30 16 75 -55 169 -77 103 -142 249 -194 437 -9 35 -23 62 -35 68 -28 15 -76
12 -94 -5z"/>
<path d="M4083 7208 c-5 -7 -20 -38 -32 -68 -49 -117 -166 -295 -289 -440 -44
-52 -52 -67 -47 -89 13 -56 53 -64 135 -25 82 38 127 80 215 202 44 61 85 111
90 111 6 0 30 -34 55 -76 52 -88 187 -231 243 -257 50 -23 95 -18 119 15 18
24 18 29 5 60 -8 19 -44 66 -81 104 -71 74 -129 164 -217 333 -29 57 -64 112
-77 123 -28 22 -104 26 -119 7z"/>
<path d="M3104 7164 c-12 -11 -29 -39 -38 -64 -41 -107 -163 -302 -267 -422
-73 -85 -83 -113 -53 -156 20 -29 48 -28 110 3 96 48 223 181 276 289 12 25
26 46 30 46 4 0 36 -44 71 -97 84 -129 162 -206 233 -232 30 -12 61 -21 69
-21 21 0 55 40 55 65 0 11 -30 57 -66 100 -104 125 -149 193 -224 338 -39 74
-77 140 -85 147 -26 22 -88 24 -111 4z"/>
<path d="M2177 6922 c-10 -10 -29 -59 -43 -108 -14 -49 -41 -120 -60 -159 -33
-66 -52 -94 -166 -245 -70 -91 -65 -150 12 -150 75 0 159 65 236 184 26 42 52
76 56 76 4 0 23 -24 41 -52 51 -78 114 -146 158 -169 53 -27 119 -34 142 -15
29 23 15 60 -64 166 -83 112 -141 227 -164 325 -10 39 -25 90 -34 115 -15 42
-19 45 -57 48 -29 2 -45 -2 -57 -16z"/>
<path d="M4089 6594 c-8 -11 -27 -43 -42 -73 -36 -70 -181 -261 -279 -367 -43
-46 -78 -91 -78 -100 0 -24 18 -52 41 -65 43 -22 221 93 300 195 l34 43 0
-438 c0 -240 2 -440 5 -442 5 -6 150 8 153 14 1 2 -1 189 -4 414 -3 226 -2
418 1 428 5 16 14 9 49 -37 74 -96 173 -181 237 -206 68 -25 97 -21 113 18 16
39 3 67 -59 127 -112 108 -259 305 -324 433 -30 59 -31 60 -88 68 -34 5 -46 2
-59 -12z"/>
<path d="M7500 6580 c-8 -5 -10 -10 -5 -10 6 0 17 5 25 10 8 5 11 10 5 10 -5
0 -17 -5 -25 -10z"/>
<path d="M3123 6573 c-7 -2 -40 -53 -74 -113 -67 -118 -159 -246 -263 -365
-73 -83 -85 -125 -46 -160 52 -47 197 47 318 210 25 33 42 51 38 40 -4 -11
-10 -271 -13 -577 l-6 -557 82 32 83 32 -1 440 c-1 242 -4 485 -7 540 l-6 100
51 -77 c98 -147 248 -239 316 -194 48 32 35 63 -71 178 -100 108 -217 275
-277 394 -31 61 -40 72 -68 78 -35 7 -39 7 -56 -1z"/>
<path d="M2194 6300 c-15 -6 -45 -55 -92 -152 -81 -165 -142 -261 -247 -392
-79 -99 -90 -129 -56 -160 28 -26 80 -12 164 44 49 33 85 66 112 105 74 106
136 190 143 192 4 2 33 -37 65 -86 88 -135 155 -204 239 -246 97 -48 148 -45
162 10 9 36 -4 57 -126 185 -100 105 -115 126 -171 240 -34 69 -74 152 -89
186 -18 40 -36 64 -53 72 -14 7 -27 12 -28 11 -1 0 -12 -4 -23 -9z"/>
<path d="M8613 6033 c9 -2 23 -2 30 0 6 3 -1 5 -18 5 -16 0 -22 -2 -12 -5z"/>
<path d="M8678 6023 c7 -3 16 -2 19 1 4 3 -2 6 -13 5 -11 0 -14 -3 -6 -6z"/>
<path d="M2151 5639 c-6 -11 -27 -49 -47 -86 -48 -92 -142 -220 -236 -324 -87
-97 -102 -125 -85 -159 23 -45 40 -46 111 -11 78 38 171 121 216 191 18 28 33
50 34 50 0 0 0 -181 -2 -403 -1 -222 1 -419 5 -439 l8 -36 68 62 68 62 -1 382
c0 210 1 382 3 382 2 0 20 -24 39 -52 84 -126 211 -238 268 -238 42 0 70 26
70 66 0 30 -14 51 -107 155 -113 126 -200 242 -260 344 -19 33 -40 63 -47 67
-22 15 -93 6 -105 -13z"/>
<path d="M8440 5060 c-139 -20 -230 -44 -365 -96 -163 -64 -228 -99 -385 -205
-202 -137 -377 -308 -680 -664 -237 -279 -517 -546 -705 -671 -161 -108 -389
-226 -575 -298 -169 -66 -393 -122 -696 -175 -460 -81 -789 -203 -1073 -398
-100 -69 -299 -243 -372 -324 -103 -117 -194 -254 -225 -341 -13 -36 -12 -43
1 -58 31 -34 312 -152 546 -228 346 -113 610 -167 960 -197 204 -17 341 -19
499 -5 541 48 970 161 1412 373 422 202 783 470 1061 787 27 30 70 79 95 109
26 29 62 70 81 90 18 20 42 53 52 74 11 20 24 37 29 37 5 0 19 19 31 43 12 23
37 59 55 80 19 20 34 41 34 46 0 5 13 22 28 38 15 15 36 50 46 77 11 28 29 59
42 71 12 11 34 49 48 84 14 36 32 72 40 80 15 17 126 242 126 256 0 4 13 35
30 69 100 206 178 469 244 826 35 187 43 250 45 344 1 45 6 100 11 121 5 24 5
44 0 49 -13 13 -359 17 -440 6z m134 -722 c10 -14 16 -44 16 -75 0 -70 -18
-87 -106 -102 -112 -19 -247 -58 -368 -105 -331 -129 -532 -274 -971 -696
-330 -317 -469 -434 -695 -585 -371 -248 -773 -396 -1155 -424 -177 -14 -546
-14 -614 -1 -80 15 -121 38 -138 78 -8 19 -12 40 -9 48 15 38 137 60 414 74
229 12 411 31 555 61 247 50 570 187 798 339 240 160 313 222 687 574 338 318
475 433 650 543 141 89 297 162 455 215 171 56 269 76 384 77 74 1 83 -1 97
-21z"/>
<path d="M1620 3821 c0 -6 4 -13 10 -16 6 -3 7 1 4 9 -7 18 -14 21 -14 7z"/>
</g>
</svg>
